# This file uses centimeters as units for non-parametric coordinates.

mtllib ground.mtl
g default
v -678.160583 650.856812 123.567474
v -678.160583 682.098633 117.096939
v 678.160583 682.098572 154.533371
v -678.160583 682.096558 -308.399170
v 678.160583 682.096313 -227.457977
v -14.800608 676.806641 119.586601
v -14.800608 679.598633 -182.628159
v -678.160583 669.040161 119.295525
v -69.297668 650.856812 129.089752
v -69.297668 670.769226 129.089752
v -76.477394 679.494080 125.691010
v -146.881577 650.856812 119.295624
v -146.881577 664.657471 119.295563
v -138.182526 679.410522 119.295464
v -219.114334 650.856812 119.295624
v -217.270187 664.262939 119.295570
v -211.749329 682.098572 119.295532
v -210.240143 682.096558 -150.266617
v -232.945435 647.689880 126.155434
v -234.789581 666.785706 119.295547
v -238.820099 682.098572 116.565186
v -237.398514 682.096558 -164.423096
v -225.136597 650.856445 110.276688
v -225.136597 664.263000 110.276726
v -175.328247 682.098572 119.295532
v -124.134392 682.098328 108.136482
v -154.237366 672.140076 124.574043
v -133.618790 682.098389 107.003021
v -139.786224 682.098206 96.749245
v -158.827606 682.098450 111.713455
v -179.721115 671.863464 127.790787
v -216.721039 663.766602 125.305328
v 205.121872 650.856812 119.295624
v 205.121902 662.214966 119.242767
v 197.837463 682.098450 119.242775
v 197.837463 682.096497 -179.515732
v 322.104065 664.176697 121.654228
v 322.104065 682.098450 121.654251
v 373.091736 650.856812 120.031929
v 379.019836 674.566589 118.152809
v 376.272369 682.098328 119.001038
v 376.256317 682.096497 -227.457977
v 500.554993 644.775818 143.698364
v 500.555023 664.525879 143.751083
v 500.555023 682.098450 143.698212
v 500.555023 682.096497 -227.457977
v 371.098206 660.238342 119.926224
v 362.109802 663.923035 120.411934
v 362.109741 674.510681 120.411858
v 377.789612 660.339111 131.595932
v 377.789612 674.618042 132.825073
v 402.658875 660.307983 134.709625
v 406.864014 674.510864 139.042496
v 417.739594 674.559021 133.052109
v 414.878693 662.905823 133.052582
v 400.358765 674.559204 133.871262
v 379.505798 644.775940 131.596054
v 400.358765 680.069153 133.871216
v 456.020111 644.775818 135.900925
v 454.499054 682.098694 130.811111
v 460.001282 663.118530 130.814346
v 402.658875 644.775879 134.709625
v 370.195709 663.899048 126.789398
v 370.195709 674.617981 126.789543
v 406.821686 665.098816 139.042542
v 418.384277 667.173645 133.052475
v 377.789612 664.009216 132.825241
v 243.778671 662.095154 129.623627
v 237.979050 682.098755 129.623611
v 308.090149 664.056702 135.002182
v 308.090179 682.098755 135.002182
v 329.131592 682.098328 123.835052
v 329.131592 664.218506 123.913986
v 329.131592 652.941467 123.841805
v 277.127502 662.239502 120.600601
v 282.599915 650.856750 120.638397
v 286.665283 662.239685 134.983307
v 292.137695 650.856689 135.021179
v 325.617828 652.941406 132.230743
v 325.617828 664.197754 132.240372
v 292.137695 645.669067 135.021179
v 308.090149 647.753784 135.002197
v 322.682831 647.753845 132.230728
v 390.957062 680.069031 126.130264
v 390.964905 674.562683 126.104416
v 379.783173 651.680054 131.596115
v 105.486740 682.096558 -150.266617
v 39.484203 682.096558 -150.266602
v 27.396379 682.098572 122.894531
v 25.528542 669.193665 126.042603
v 22.892809 649.401794 122.510269
v 416.718597 682.098328 108.072350
v 378.708221 680.068970 118.765121
v -17.507704 682.098633 116.199646
v -17.158342 682.096619 -182.628113
v -4.361023 666.566040 119.634293
v -12.432699 680.531128 115.690392
v -12.432699 682.096558 -182.039551
v -14.800608 679.599487 -22.474594
v -12.432699 682.097412 -24.778355
v 7.855824 682.097351 -17.960350
v -12.432699 681.861572 -13.635627
v -12.432699 682.066833 102.477486
v -6.268393 682.098389 98.964920
v -12.432699 682.049927 92.891830
v -14.800608 679.600403 95.336258
v -17.507704 682.098022 67.459869
v -23.383331 682.098145 61.522923
v -17.158342 682.098145 59.066059
v -14.800608 679.600098 57.999428
v 96.466049 649.401794 122.973328
v 87.711121 682.098572 127.573395
v 103.142136 650.856812 113.985565
v 103.142181 660.224365 113.985413
v 107.931686 682.098450 113.948242
v 148.375595 682.096558 -163.850296
v 17.474569 671.828064 112.711159
v 21.073503 681.368652 119.291878
v 12.121057 682.098511 108.219406
v 11.208753 650.856812 108.219391
v -34.877625 678.666321 112.974701
v -23.273623 676.806641 118.666542
v -5.396839 676.806641 120.055252
v -25.309420 682.098450 109.770325
v -56.808762 682.098389 107.211662
v -42.265686 679.895569 114.697746
v -42.789131 673.408142 115.899994
v -32.630405 671.626831 112.838730
v -17.182980 666.429565 118.768654
v 5.203287 668.605896 111.658836
v -41.378155 682.098328 111.811554
v -34.877625 682.098389 112.320473
v -42.789131 650.856812 114.604362
v -43.319298 671.595825 112.750366
v 397.713409 680.068970 114.847252
v 397.771149 682.098328 114.760414
v 527.431213 681.142944 105.874352
v 459.105072 678.790222 129.268417
v 456.020142 661.089355 134.600174
v -70.840744 682.096619 -143.918839
v -57.145470 682.096558 -171.663635
v 16.980284 682.096558 -176.213715
v 26.496363 670.713989 121.945816
v 65.426315 669.915039 128.927521
v 66.497353 649.401794 125.805611
v 146.331406 650.856812 116.234390
v 146.331436 661.067444 116.211960
v 146.007538 682.098450 116.190552
v 169.323120 682.096558 -170.484802
v -386.107239 669.040161 115.699478
v -416.332611 682.098633 106.037926
v -405.384796 682.096558 -308.399170
v -234.386597 665.066650 126.155396
v -362.604126 669.040161 119.295525
v -371.599731 682.098572 116.565186
v -678.160583 665.456360 123.567322
v -441.098297 679.073792 119.295547
v -441.098267 669.040161 120.251991
v -413.509369 666.719788 123.567375
v -413.509369 648.284546 123.567474
v -394.324585 647.689880 122.697189
v -406.666199 650.856812 119.295624
v -407.295868 666.401855 119.295532
v -394.954041 665.114685 122.697174
v -402.700531 669.040161 110.760849
v -508.829559 650.856812 115.620987
v -515.369385 669.040283 114.727478
v -506.603943 679.073975 112.835861
v -494.521057 679.073792 122.923889
v -502.599823 669.040161 123.880333
v -521.559692 666.815002 125.538307
v -513.017700 648.284546 125.538361
v -527.619385 665.318481 119.552895
v -520.969604 650.856750 119.553009
v -479.745361 666.771790 127.640991
v -479.745392 648.284485 127.641090
v -496.158844 682.098572 108.881973
v -516.057861 673.081604 113.809998
v -423.486755 679.224304 108.324860
v -442.234802 682.098572 105.605759
v -519.399902 678.766479 114.657623
v -525.297607 673.295288 114.822807
v -608.991211 682.098572 114.470192
v -588.043274 668.307617 118.217133
v -589.370117 665.376526 125.151070
v -589.370117 650.856812 125.151169
v -538.280212 678.581055 120.633064
v -599.637634 679.634399 122.188454
v -540.430054 674.364014 121.167358
v -599.637634 673.473145 123.633652
v -551.957153 682.098572 113.332191
v -608.991211 677.004211 117.708984
v -678.160583 641.397461 -308.399170
v -405.384796 641.397461 -308.399170
v -14.800608 638.899536 -182.628159
v -12.432699 641.397461 -182.039551
v -210.240143 641.397461 -150.266617
v -70.840744 641.397461 -143.918839
v -237.398514 641.397461 -164.423096
v 197.837463 641.397339 -179.515732
v 376.256317 641.397339 -227.457977
v 500.555023 641.397339 -227.457977
v 678.160583 641.396667 -227.457977
v 105.486740 641.397461 -150.266617
v 148.375595 641.397461 -163.850296
v 39.484203 641.397461 -150.266602
v -17.158342 641.397461 -182.628113
v 16.980284 641.397461 -176.213715
v 169.323120 641.397461 -170.484802
v -57.145470 641.397461 -171.663635
v 678.160583 641.396667 154.533371
vt 0.402231 0.000000
vt 0.408656 0.000000
vt 0.408651 0.084147
vt 0.402231 0.084527
vt 0.389222 0.250000
vt 0.402622 0.250000
vt 0.409058 0.250000
vt 0.409058 0.500000
vt 0.375000 0.500000
vt 0.375000 0.250000
vt 0.382502 0.250000
vt 0.385647 0.250000
vt 0.493487 0.500000
vt 0.493001 0.500000
vt 0.493001 0.394873
vt 0.493487 0.397582
vt 0.493487 0.250000
vt 0.493001 0.250000
vt 0.493487 0.219644
vt 0.402231 0.107278
vt 0.407556 0.107278
vt 0.407086 0.250000
vt 0.402231 0.250000
vt 0.250716 0.053639
vt 0.493487 0.107278
vt 0.491844 0.107278
vt 0.281943 0.299297
vt 0.492521 0.250000
vt 0.454384 0.308902
vt 0.492521 0.200000
vt 0.491049 0.259967
vt 0.520066 0.099644
vt 0.502998 0.141313
vt 0.502998 0.107278
vt 0.520066 0.250000
vt 0.502998 0.250000
vt 0.515164 0.500000
vt 0.523596 0.250000
vt 0.523596 0.500000
vt 0.502998 0.500000
vt 0.471161 0.000000
vt 0.481306 0.000000
vt 0.481306 0.107278
vt 0.471161 0.107278
vt 0.471161 0.250000
vt 0.481306 0.250000
vt 0.458060 0.000000
vt 0.458060 0.107278
vt 0.458060 0.135727
vt 0.465837 0.162911
vt 0.469945 0.152352
vt 0.491361 0.307103
vt 0.480822 0.500000
vt 0.458060 0.500000
vt 0.458060 0.250000
vt 0.467310 0.250000
vt 0.469288 0.258753
vt 0.470824 0.265553
vt 0.471161 0.302369
vt 0.471161 0.267044
vt 0.485363 0.263001
vt 0.453239 0.250000
vt 0.453239 0.107278
vt 0.453239 0.500000
vt 0.455650 0.107278
vt 0.455650 0.000000
vt 0.453239 0.083836
vt 0.453239 0.000000
vt 0.556641 0.107278
vt 0.553571 0.107278
vt 0.557011 0.000000
vt 0.000000 1.000000
vt 1.000000 1.000000
vt 0.533320 0.500000
vt 0.533320 0.250000
vt 0.566638 0.500000
vt 0.556170 0.250000
vt 0.566638 0.250000
vt 0.557723 0.250000
vt 0.566638 0.000000
vt 0.563065 0.107278
vt 0.560835 0.107278
vt 0.557112 0.107278
vt 0.557852 0.000000
vt 0.556170 0.250000
vt 0.590649 0.274019
vt 0.590649 0.500000
vt 0.557006 0.269971
vt 0.533320 0.500000
vt 0.545910 0.377730
vt 0.590649 0.107278
vt 0.590649 0.000000
vt 0.625000 0.250000
vt 0.590649 0.250000
vt 0.625000 0.500000
vt 0.563737 0.107278
vt 0.566638 0.107278
vt 0.556170 0.084329
vt 0.556170 0.250000
vt 0.533320 0.250000
vt 0.533320 0.064260
vt 0.533320 0.329426
vt 0.538652 0.500000
vt 0.533320 0.500000
vt 0.387441 1.000000
vt 0.317706 0.000000
vt 1.000000 0.000000
vt 1.000000 1.000000
vt 0.000000 0.000000
vt 1.000000 0.000000
vt 1.000000 0.662685
vt 0.000000 0.641580
vt 0.556170 0.500000
vt 0.548049 0.500000
vt 0.543446 0.500000
vt 0.000000 1.000000
vt 0.387441 0.000000
vt 1.000000 0.000000
vt 0.537204 0.000000
vt 0.556170 0.000000
vt 0.556170 0.089591
vt 0.537112 0.107660
vt 1.000000 0.908598
vt 0.000000 1.000000
vt 0.000000 0.814465
vt 0.000000 0.569359
vt 1.000000 0.641636
vt 1.000000 1.000000
vt 0.000000 0.970289
vt 0.539448 0.193541
vt 0.539448 0.138442
vt 0.539448 0.107660
vt 0.556170 0.107660
vt 0.533320 0.250000
vt 0.533320 0.193541
vt 0.000000 0.000000
vt 0.489769 0.000000
vt 0.489769 0.225837
vt 0.000000 0.225837
vt 0.533320 0.046384
vt 0.533320 0.107660
vt 0.000000 0.000000
vt 0.000000 0.000000
vt 0.000000 0.742961
vt 1.000000 1.000000
vt 0.000000 1.000000
vt 0.000000 1.000000
vt 0.556170 0.000000
vt 0.533320 0.000000
vt 0.000000 0.569359
vt 1.000000 0.569359
vt 0.556170 0.250000
vt 0.548561 0.000000
vt 0.556170 0.000000
vt 0.556170 0.500000
vt 0.533320 0.500000
vt 0.533320 0.250000
vt 0.000000 0.000000
vt 1.000000 0.000000
vt 1.000000 1.000000
vt 0.000000 1.000000
vt 0.000000 0.000000
vt 1.000000 0.000000
vt 1.000000 1.000000
vt 0.000000 1.000000
vt 0.556170 0.107278
vt 0.549653 0.107278
vt 0.533320 0.107278
vt 0.533320 0.000000
vt 0.549653 0.000000
vt 0.549653 0.000000
vt 0.549653 0.107278
vt 0.533320 0.000000
vt 1.000000 1.000000
vt 0.000000 1.000000
vt 1.000000 0.000000
vt 0.000000 0.000000
vt 1.000000 0.000000
vt 0.000000 1.000000
vt 0.000000 0.000000
vt 1.000000 0.000000
vt 1.000000 1.000000
vt 1.000000 0.225837
vt 0.897932 0.000000
vt 1.000000 0.000000
vt 0.533320 0.000000
vt 0.533320 0.474483
vt 0.545163 0.372227
vt 0.533320 0.372442
vt 0.492521 0.500000
vt 0.492521 0.310968
vt 0.493001 0.312638
vt 0.501431 0.250000
vt 0.500808 0.264054
vt 0.500287 0.275801
vt 0.493487 0.268205
vt 0.493487 0.277943
vt 0.493001 0.279318
vt 0.500287 0.395512
vt 0.493487 0.386168
vt 0.492521 0.302364
vt 0.523596 0.107278
vt 0.520066 0.000000
vt 0.523596 0.000000
vt 0.514130 0.000000
vt 0.527714 0.107278
vt 0.527714 0.000000
vt 0.527714 0.250000
vt 0.527714 0.500000
vt 0.498875 0.500000
vt 0.000000 0.000000
vt 1.000000 0.000000
vt 0.500000 0.867755
vt 0.000000 0.000000
vt 1.000000 0.000000
vt 1.000000 0.867755
vt 0.000000 0.761527
vt 1.000000 1.000000
vt 0.000000 1.000000
vt 0.000000 0.000000
vt 0.487749 0.261728
vt 0.489227 0.260939
vt 0.488007 0.107278
vt 0.476469 0.271472
vt 0.439414 0.260280
vt 0.417053 0.316125
vt 0.277454 0.423539
vt 0.000000 1.000000
vt 1.000000 0.000000
vt 0.560635 0.250000
vt 1.000000 0.569359
vt 0.870494 0.000000
vt 0.000000 0.000000
vt 0.483935 0.500000
vt 0.000000 1.000000
vt 0.502998 0.000000
vt 0.409827 0.084119
vt 0.409823 0.000000
vt 0.409058 0.107278
vt 0.419966 0.107278
vt 0.417820 0.250000
vt 0.392714 0.107278
vt 0.389091 0.154652
vt 0.388531 0.102070
vt 0.382319 0.100753
vt 0.382977 0.085663
vt 0.388791 0.085320
vt 0.388791 0.000000
vt 0.389814 0.000000
vt 0.397041 0.084833
vt 0.396079 0.000000
vt 0.392714 0.250000
vt 0.392714 0.085089
vt 0.392714 0.000000
vt 0.382426 0.000000
vt 0.389537 0.224895
vt 0.388413 0.195973
vt 0.388086 0.149170
vt 0.382379 0.149737
vt 0.375000 0.107278
vt 0.375000 0.086134
vt 0.375000 0.000000
vt 0.383303 0.135171
vt 0.387337 0.217948
vt 0.382744 0.109138
vt 0.387641 0.166896
vt 0.000000 0.000000
vt 1.000000 0.000000
vt 1.000000 1.000000
vt 0.000000 1.000000
vt 0.000000 0.000000
vt 1.000000 0.000000
vt 1.000000 1.000000
vt 0.000000 1.000000
vt 0.000000 0.000000
vt 1.000000 0.000000
vt 1.000000 1.000000
vt 0.000000 1.000000
vt 0.000000 0.000000
vt 1.000000 0.000000
vt 1.000000 1.000000
vt 0.000000 1.000000
vt 0.000000 0.000000
vt 1.000000 0.000000
vt 1.000000 1.000000
vt 0.000000 1.000000
vt 0.000000 0.000000
vt 1.000000 0.000000
vt 1.000000 1.000000
vt 0.000000 1.000000
vt 0.000000 0.000000
vt 1.000000 0.000000
vt 1.000000 1.000000
vt 0.000000 1.000000
vt 0.000000 0.000000
vt 1.000000 0.000000
vt 1.000000 1.000000
vt 0.000000 1.000000
vt 0.000000 0.000000
vt 1.000000 0.000000
vt 1.000000 1.000000
vt 0.000000 1.000000
vt 0.000000 0.000000
vt 1.000000 0.000000
vt 1.000000 1.000000
vt 0.000000 1.000000
vt 0.000000 0.000000
vt 1.000000 0.000000
vt 1.000000 1.000000
vt 0.000000 1.000000
vt 0.000000 0.000000
vt 1.000000 0.000000
vt 1.000000 1.000000
vt 0.000000 1.000000
vt 0.000000 0.000000
vt 1.000000 0.000000
vt 1.000000 1.000000
vt 0.000000 1.000000
vt 0.000000 0.000000
vt 1.000000 0.000000
vt 1.000000 1.000000
vt 0.000000 1.000000
vt 0.000000 0.000000
vt 1.000000 0.000000
vt 1.000000 1.000000
vt 0.000000 1.000000
vt 0.000000 0.000000
vt 1.000000 0.000000
vt 1.000000 1.000000
vt 0.000000 1.000000
vt 0.000000 0.000000
vt 1.000000 0.000000
vt 1.000000 1.000000
vt 0.000000 1.000000
vt 0.000000 0.000000
vt 1.000000 0.000000
vt 1.000000 1.000000
vt 0.000000 1.000000
vt 0.000000 0.000000
vt 1.000000 0.500000
vt 0.000000 1.000000
vt 0.000000 0.000000
vt 1.000000 0.500000
vt 0.000000 1.000000
vt 0.000000 0.000000
vt 1.000000 0.000000
vt 0.000000 1.000000
vt 0.000000 0.000000
vt 0.000000 0.000000
vt 0.000000 0.000000
vt 0.000000 0.000000
vt 0.000000 0.000000
vt 0.000000 0.000000
vt 0.000000 0.000000
vt 0.000000 0.000000
vt 0.000000 0.000000
vt 0.000000 0.000000
vt 0.000000 0.000000
vt 0.000000 0.000000
vt 0.000000 0.000000
vt 0.000000 0.000000
vt 0.000000 0.000000
vt 0.000000 0.000000
vt 0.000000 0.000000
vt 0.000000 0.000000
vt 0.000000 0.000000
vt 0.000000 0.000000
vt 0.000000 0.000000
vt 0.000000 0.000000
vt 0.000000 0.000000
vt 0.000000 0.000000
vt 0.000000 0.000000
vt 0.000000 0.000000
vt 0.000000 0.000000
vt 0.000000 0.000000
vt 0.000000 0.000000
vt 0.000000 0.000000
vt 0.000000 0.000000
vt 0.000000 0.000000
vt 0.000000 0.000000
vt 0.000000 0.000000
vt 0.000000 0.000000
vt 0.000000 0.000000
vt 0.000000 0.000000
vt 0.000000 0.000000
vt 0.000000 0.000000
vt 0.000000 0.000000
vt 0.000000 0.000000
vt 0.000000 0.000000
vt 0.000000 0.000000
vt 0.000000 0.000000
vt 0.000000 0.000000
vt 0.000000 0.000000
vt 0.000000 0.000000
vt 0.000000 0.000000
vt 0.000000 0.000000
vt 0.000000 0.000000
vt 0.000000 0.000000
vt 0.658495 0.341505
vt 0.000000 0.000000
vn 0.101230 0.000825 0.994863
vn 0.546295 0.010129 0.837531
vn 0.546295 0.010129 0.837531
vn 0.108889 0.000982 0.994054
vn -0.000038 0.999999 0.001400
vn 0.000037 1.000000 0.000930
vn 0.000001 1.000000 -0.000005
vn 0.000001 1.000000 -0.000005
vn -0.000000 1.000000 -0.000005
vn -0.000000 1.000000 -0.000005
vn 0.000037 1.000000 0.000424
vn 0.000155 0.999998 0.001782
vn -0.725743 0.687966 -0.000004
vn -0.725743 0.687966 -0.000004
vn -0.638786 0.769383 0.001391
vn -0.706550 0.706540 0.039864
vn -0.033427 0.985283 0.167628
vn -0.033876 0.732644 0.679769
vn -0.090888 0.680464 0.727123
vn 0.155360 0.215689 0.964024
vn 0.304707 0.453785 0.837396
vn 0.304707 0.453785 0.837396
vn 0.158804 0.221146 0.962224
vn 0.138632 -0.986595 -0.086092
vn 0.138632 -0.986595 -0.086092
vn -0.060013 -0.874393 -0.481493
vn 0.110530 -0.982956 -0.146905
vn -0.206547 0.697977 0.685687
vn -0.257353 0.815892 0.517774
vn -0.230501 0.606032 0.761311
vn -0.236732 0.928149 0.287225
vn -0.041504 0.939859 0.339031
vn -0.082280 0.940519 0.329627
vn -0.105351 0.935702 0.336694
vn 0.186694 -0.061213 0.980509
vn -0.248561 0.100117 0.963428
vn -0.270500 0.094970 0.958024
vn -0.026694 -0.046148 0.998578
vn -0.000000 1.000000 -0.000007
vn -0.000432 1.000000 -0.000069
vn -0.000000 1.000000 -0.000008
vn -0.000000 1.000000 -0.000007
vn -0.000000 1.000000 -0.000007
vn -0.000149 1.000000 -0.000028
vn -0.072295 0.000003 0.997383
vn 0.079996 0.015381 0.996677
vn 0.080792 0.092491 0.992430
vn -0.082402 0.026831 0.996238
vn -0.120725 0.149874 0.981307
vn -0.061870 0.186765 0.980455
vn -0.127863 0.008798 0.991753
vn -0.099031 0.006815 0.995061
vn -0.000967 -0.996829 0.079567
vn -0.044082 -0.997770 -0.050118
vn 0.087464 -0.631975 0.770038
vn 0.077651 -0.591907 0.802257
vn 0.114081 -0.495352 0.861169
vn -0.000000 1.000000 -0.000007
vn -0.000000 1.000000 -0.000007
vn 0.000000 1.000000 -0.000007
vn 0.000000 1.000000 -0.000007
vn 0.000000 1.000000 -0.000007
vn 0.000000 1.000000 -0.000007
vn 0.000000 1.000000 -0.000007
vn 0.000000 1.000000 -0.000007
vn 0.000062 0.999989 0.004753
vn 0.000074 0.999984 0.005631
vn -0.020710 0.198351 0.979912
vn -0.040621 0.205938 0.977722
vn -0.156160 0.287076 0.945093
vn -0.141273 0.326788 0.934479
vn 0.000003 1.000000 -0.000006
vn 0.000003 1.000000 -0.000006
vn -0.791164 0.054415 0.609178
vn -0.791164 0.054415 0.609178
vn -0.142058 -0.986524 0.081179
vn -0.141441 -0.982232 0.123352
vn 0.878924 0.041149 0.475184
vn 0.054500 0.002292 0.998511
vn 0.059591 0.002531 0.998220
vn 0.878924 0.041149 0.475184
vn 0.246647 0.806878 0.536762
vn 0.571424 0.734948 0.365139
vn 0.265580 0.661269 0.701563
vn 0.314984 0.551531 0.772398
vn 0.160729 0.484029 0.860164
vn 0.601448 -0.712326 -0.361736
vn 0.601448 -0.712326 -0.361736
vn 0.601448 -0.712326 -0.361736
vn -0.532404 0.822476 0.200199
vn -0.620763 0.366023 -0.693311
vn -0.462756 0.819633 0.337726
vn -0.010960 0.564384 0.825439
vn 0.040216 0.627882 0.777269
vn 0.092485 0.612136 0.785325
vn -0.361371 0.789117 0.496695
vn 0.155653 -0.000845 0.987811
vn 0.345318 0.000142 0.938486
vn 0.159573 -0.012868 0.987102
vn 0.185552 -0.104987 0.977010
vn 0.080688 -0.002994 0.996735
vn -0.000001 1.000000 -0.000006
vn -0.000000 1.000000 -0.000006
vn 0.002758 0.999996 0.000349
vn 0.000001 1.000000 -0.000006
vn 0.000001 1.000000 -0.000005
vn 0.000004 1.000000 0.000029
vn 0.092939 0.024550 0.995369
vn 0.092939 0.024550 0.995369
vn 0.099038 0.011254 0.995020
vn 0.062074 0.006541 0.998050
vn 0.092939 0.024550 0.995369
vn 0.003914 0.999992 0.000797
vn -0.000367 1.000000 0.000031
vn 0.000069 1.000000 0.001050
vn 0.002907 0.999995 0.001430
vn -0.000001 1.000000 -0.000005
vn -0.096379 0.006613 0.995323
vn -0.085465 0.006597 0.996319
vn -0.060857 0.000000 0.998147
vn -0.105275 0.006371 0.994423
vn -0.003124 0.999994 0.001447
vn -0.003070 0.999995 0.001143
vn 0.043574 -0.004133 0.999042
vn 0.106568 -0.005227 0.994292
vn 0.106351 -0.005453 0.994314
vn 0.108219 -0.003720 0.994120
vn -0.002966 -0.162060 0.986776
vn -0.030183 0.005052 0.999532
vn -0.322525 0.000342 0.946561
vn -0.293650 -0.139357 0.945700
vn -0.001476 0.999971 -0.007456
vn 0.000920 0.999987 -0.004962
vn -0.004749 0.999931 -0.010794
vn -0.620674 -0.005518 0.784049
vn -0.620710 -0.000003 0.784040
vn -0.619283 -0.000007 0.785168
vn -0.619283 -0.000007 0.785168
vn 0.469690 0.016865 0.882671
vn 0.460845 -0.137885 0.876704
vn 0.000426 0.999961 0.008790
vn 0.002410 0.999996 0.001423
vn 0.001291 0.999984 0.005577
vn 0.002555 0.999997 -0.000254
vn 0.002559 0.999995 -0.001716
vn -0.424440 -0.820909 0.382046
vn -0.477953 -0.799580 0.363637
vn -0.326685 -0.851094 0.410994
vn -0.037833 0.029372 0.998852
vn -0.098366 0.037589 0.994440
vn -0.099999 0.037526 0.994280
vn -0.040752 0.027894 0.998780
vn -0.852129 -0.162643 0.497417
vn -0.388008 0.015579 0.921525
vn -0.351719 -0.043087 0.935113
vn 0.054944 0.008939 0.998449
vn 0.054944 0.008939 0.998450
vn 0.054944 0.008939 0.998450
vn 0.057807 0.009826 0.998279
vn 0.072864 0.010706 0.997284
vn 0.004642 0.008272 0.999955
vn 0.003521 0.008257 0.999960
vn -0.582405 -0.035892 0.812106
vn -0.582309 -0.035949 0.812172
vn -0.420447 -0.078748 0.903893
vn -0.563730 -0.757262 0.329792
vn -0.055587 -0.529030 0.846781
vn 0.347363 -0.627395 0.696932
vn -0.192758 -0.475217 0.858495
vn -0.848446 -0.184597 0.496048
vn 0.207217 0.021720 0.978054
vn -0.085803 0.033312 0.995755
vn 0.000001 1.000000 -0.000033
vn 0.000001 1.000000 -0.000033
vn -0.176383 -0.024372 0.984020
vn -0.118162 -0.033041 0.992444
vn -0.104284 -0.026734 0.994188
vn -0.148774 -0.003663 0.988864
vn 0.689692 -0.000000 0.724103
vn 0.689692 -0.000000 0.724103
vn -0.301267 0.002101 0.953537
vn -0.301267 0.002101 0.953538
vn -0.018063 -0.000361 0.999837
vn -0.032480 0.001284 0.999472
vn -0.018063 -0.000361 0.999837
vn -0.007504 0.999972 0.000511
vn -0.007945 0.999968 0.000660
vn -0.007648 0.999971 0.000560
vn -0.774108 -0.370452 0.513345
vn -0.777824 -0.359069 0.515809
vn -0.795110 -0.299643 0.527270
vn -0.774108 -0.370452 0.513345
vn 0.921198 -0.038444 0.387189
vn 0.921843 -0.001405 0.387562
vn 0.921843 -0.001405 0.387562
vn 0.916574 -0.107825 0.385054
vn -0.005944 0.999982 -0.000015
vn 0.001190 0.000000 0.999999
vn 0.000048 0.001381 0.999999
vn -0.833409 0.000000 0.552656
vn 0.817709 -0.462641 0.342515
vn 0.173099 0.055571 0.983336
vn 0.196834 0.079438 0.977213
vn 0.196834 0.079439 0.977213
vn -0.533798 -0.064365 0.843159
vn -0.533798 -0.064365 0.843159
vn -0.044947 0.998042 0.043492
vn -0.041886 0.998300 0.040530
vn -0.000003 1.000000 -0.000006
vn -0.000003 1.000000 -0.000006
vn -0.093341 0.502399 0.859583
vn 0.727240 0.686384 -0.000004
vn 0.730839 0.682326 0.017454
vn 0.719137 0.694867 -0.001540
vn 0.727240 0.686384 -0.000004
vn 0.727240 0.686384 -0.000004
vn -0.031305 0.991594 0.125548
vn -0.003496 0.999985 0.004191
vn -0.003252 0.999989 0.003317
vn -0.027188 0.995651 0.089107
vn -0.698140 0.715838 0.013307
vn -0.685647 0.727849 0.011128
vn -0.233454 0.965459 -0.115704
vn -0.738694 0.673919 0.012808
vn -0.086071 0.989563 -0.115576
vn -0.639940 0.767752 -0.032132
vn -0.704887 0.709319 -0.000599
vn -0.809198 0.583651 0.067451
vn -0.809198 0.583651 0.067451
vn 0.218302 0.964019 -0.151699
vn 0.609676 0.791894 -0.034634
vn 0.874023 0.482693 0.055607
vn 0.692926 0.721000 0.003577
vn 0.857368 0.512279 0.049904
vn 0.065204 -0.018128 0.997707
vn 0.215666 0.014293 0.976363
vn 0.346972 -0.056933 0.936146
vn 0.317262 0.040034 0.947493
vn 0.014452 -0.142880 0.989635
vn -0.053806 -0.000663 0.998551
vn -0.051767 0.002552 0.998656
vn -0.054884 -0.002310 0.998490
vn 0.000000 1.000000 -0.000007
vn -0.000000 1.000000 -0.000007
vn -0.001613 0.999999 -0.000237
vn 0.000003 1.000000 -0.000005
vn 0.000003 1.000000 -0.000005
vn 0.000003 1.000000 -0.000005
vn 0.774925 0.133768 -0.617736
vn 0.774925 0.133768 -0.617736
vn 0.774925 0.133768 -0.617736
vn -0.701778 -0.027858 0.711851
vn -0.701778 -0.027858 0.711851
vn -0.657451 -0.194218 0.728036
vn -0.300682 -0.181228 0.936348
vn -0.240541 -0.176436 0.954469
vn -0.657451 -0.194218 0.728036
vn -0.233727 -0.126212 0.964076
vn 0.166424 -0.299086 0.939601
vn -0.077575 -0.055835 0.995422
vn 0.175384 -0.304945 0.936082
vn -0.385640 -0.186369 0.903631
vn 0.216288 -0.350558 0.911224
vn 0.216288 -0.350558 0.911224
vn 0.000000 1.000000 -0.000006
vn 0.000004 1.000000 -0.000009
vn 0.000004 1.000000 -0.000009
vn -0.000002 1.000000 -0.000005
vn -0.000002 1.000000 -0.000005
vn 0.321697 0.400285 0.858069
vn 0.321697 0.400285 0.858069
vn -0.431437 -0.208249 0.877778
vn -0.431437 -0.208249 0.877778
vn -0.084018 -0.847572 -0.523988
vn -0.163469 0.096819 0.981786
vn 0.209890 0.002731 0.977721
vn 0.065854 -0.032910 0.997286
vn -0.040594 0.072863 0.996516
vn -0.011702 0.083902 0.996405
vn -0.282976 0.137155 0.949270
vn 0.733682 -0.492641 -0.467990
vn 0.470097 0.144616 -0.870687
vn 0.501924 0.136671 -0.854046
vn 0.482007 -0.792045 0.374611
vn 0.253276 0.181150 0.950282
vn 0.301716 -0.847435 0.436831
vn 0.243242 -0.004986 0.969953
vn 0.070536 -0.036344 0.996847
vn 0.070536 -0.036344 0.996847
vn 0.002237 0.985189 0.171455
vn 0.002237 0.985189 0.171455
vn 0.002237 0.985189 0.171455
vn 0.332679 0.030866 0.942535
vn 0.332679 0.030866 0.942535
vn 0.332679 0.030866 0.942535
vn 0.323616 0.009368 0.946142
vn 0.337305 0.030875 0.940889
vn -0.018218 0.999105 -0.038185
vn -0.318257 0.036979 0.947283
vn -0.318257 0.036979 0.947283
vn -0.056721 0.996241 -0.065473
vn -0.089614 0.878422 0.469409
vn -0.025087 0.798935 0.600893
vn -0.142781 0.927032 0.346736
vn 0.008208 0.749684 0.661745
vn 0.008208 0.749684 0.661745
vn -0.002235 0.999997 -0.000326
vn -0.002235 0.999997 -0.000326
vn -0.000004 1.000000 -0.000006
vn -0.000003 1.000000 -0.000006
vn -0.000003 1.000000 -0.000006
vn -0.263729 0.903493 0.337857
vn -0.266020 0.902385 0.339022
vn -0.040459 -0.001967 0.999179
vn -0.035512 -0.001787 0.999368
vn -0.087228 0.286265 0.954172
vn -0.203080 0.154555 0.966887
vn -0.017975 0.187018 0.982192
vn -0.070408 0.179400 0.981253
vn 0.000003 1.000000 -0.000006
vn 0.024722 0.881347 0.471823
vn 0.009140 0.876989 0.480423
vn 0.416730 0.887235 0.197867
vn 0.065874 0.970611 0.231462
vn 0.054834 0.965926 0.252944
vn 0.346375 0.827303 0.442261
vn -0.149297 0.283371 0.947318
vn -0.478076 0.507950 0.716541
vn -0.580470 0.084977 0.809835
vn 0.030791 0.854303 0.518863
vn 0.016285 0.859593 0.510719
vn 0.012646 0.860879 0.508652
vn 0.030791 0.854303 0.518863
vn 0.313334 0.152255 0.937358
vn 0.313334 0.152255 0.937358
vn 0.313334 0.152255 0.937358
vn 0.313334 0.152255 0.937358
vn -0.024144 0.885892 0.463263
vn 0.000399 0.875023 0.484081
vn -0.267408 -0.010209 0.963529
vn -0.267408 -0.010209 0.963529
vn -0.063989 0.946208 0.317167
vn -0.063069 0.910898 0.407783
vn 0.027192 0.916387 0.399369
vn -0.076400 0.963466 0.256704
vn -0.254999 0.082255 0.963436
vn 0.018888 -0.004681 0.999811
vn 0.018919 -0.004678 0.999810
vn -0.033177 0.861332 0.506958
vn 0.024597 0.909934 0.414023
vn -0.004552 0.140850 0.990021
vn -0.102953 0.984260 0.143645
vn -0.095975 0.973263 0.208684
vn -0.805844 -0.342788 -0.482817
vn -0.805844 -0.342788 -0.482817
vn -0.805844 -0.342788 -0.482817
vn -0.805844 -0.342788 -0.482817
vn 0.025932 0.008325 0.999629
vn 0.025962 0.008331 0.999628
vn 0.085701 0.019671 0.996127
vn 0.085701 0.019671 0.996127
vn -0.055923 -0.012900 0.998352
vn -0.055923 -0.012900 0.998352
vn 0.006673 0.977033 0.212983
vn 0.119247 0.971521 0.204761
vn -0.449379 0.574081 0.684463
vn 0.031939 0.572400 0.819352
vn -0.012794 0.641858 0.766717
vn -0.005695 0.976878 0.213720
vn -0.005695 0.976878 0.213720
vn 0.061546 0.725752 0.685198
vn 0.057116 0.747924 0.661323
vn 0.057116 0.747924 0.661322
vn 0.071716 0.653336 0.753664
vn 0.120758 0.014535 0.992576
vn 0.110014 0.052719 0.992531
vn 0.110014 0.052719 0.992531
vn 0.012639 0.088641 0.995984
vn 0.016697 0.196452 0.980371
vn 0.004112 0.160903 0.986962
vn 0.004248 0.175953 0.984389
vn 0.032031 0.536228 0.843465
vn 0.002505 0.864376 0.502841
vn 0.002505 0.864376 0.502841
vn -0.017834 0.000009 0.999841
vn -0.017834 0.000009 0.999841
vn 0.029398 0.940315 0.339033
vn 0.029398 0.940315 0.339033
vn 0.029398 0.940315 0.339033
vn -0.383979 -0.921583 0.056959
vn -0.582904 -0.683164 0.439897
vn -0.568628 0.114352 0.814608
vn 0.041390 -0.681369 0.730769
vn 0.041390 -0.681369 0.730769
vn 0.041390 -0.681369 0.730769
vn 0.041390 -0.681369 0.730769
vn 0.364279 0.135683 0.921353
vn 0.338502 -0.141855 0.930211
vn 0.312561 0.715295 0.625027
vn 0.328498 -0.206319 0.921695
vn 0.328498 -0.206319 0.921695
vn 0.033033 0.180648 0.982993
vn 0.033033 0.180648 0.982993
vn 0.033033 0.180648 0.982993
vn 0.033033 0.180648 0.982993
vn -0.482045 0.336618 0.808901
vn -0.482045 0.336618 0.808901
vn 0.000000 0.000000 -1.000000
vn 0.000000 0.000000 -1.000000
vn 0.000000 0.000000 -1.000000
vn 0.000000 0.000000 -1.000000
vn 0.241238 0.000000 -0.970466
vn 0.241238 0.000000 -0.970466
vn 0.241238 0.000000 -0.970466
vn 0.241238 0.000000 -0.970466
vn 0.045489 0.000000 -0.998965
vn 0.045489 0.000000 -0.998965
vn 0.045489 0.000000 -0.998965
vn 0.045489 0.000000 -0.998965
vn 0.462230 0.000000 -0.886760
vn 0.462230 0.000000 -0.886760
vn 0.462230 0.000000 -0.886760
vn 0.462230 0.000000 -0.886760
vn -0.259501 0.000000 -0.965743
vn -0.259501 0.000000 -0.965743
vn -0.259501 0.000000 -0.965743
vn -0.259501 0.000000 -0.965743
vn 0.000000 0.000000 -1.000000
vn 0.000000 0.000000 -1.000000
vn 0.000000 0.000000 -1.000000
vn 0.000000 0.000000 -1.000000
vn -0.000000 0.000000 -1.000000
vn -0.000000 0.000000 -1.000000
vn -0.000000 0.000000 -1.000000
vn -0.000000 0.000000 -1.000000
vn -0.301937 0.000000 -0.953328
vn -0.301937 0.000000 -0.953328
vn -0.301937 0.000000 -0.953328
vn -0.301937 0.000000 -0.953328
vn -0.000000 0.000000 -1.000000
vn -0.000000 0.000000 -1.000000
vn -0.000000 0.000000 -1.000000
vn -0.000000 0.000000 -1.000000
vn -0.000020 0.000000 -1.000000
vn -0.000020 0.000000 -1.000000
vn -0.000020 0.000000 -1.000000
vn -0.000020 0.000000 -1.000000
vn 0.194296 0.000000 -0.980943
vn 0.194296 0.000000 -0.980943
vn 0.194296 0.000000 -0.980943
vn 0.194296 0.000000 -0.980943
vn -0.301938 0.000000 -0.953327
vn -0.301938 0.000000 -0.953327
vn -0.301938 0.000000 -0.953327
vn -0.301938 0.000000 -0.953327
vn -0.896706 0.000000 -0.442627
vn -0.896706 0.000000 -0.442627
vn -0.896706 0.000000 -0.442627
vn -0.896706 0.000000 -0.442627
vn -0.264440 0.000000 -0.964402
vn -0.264439 0.000000 -0.964402
vn -0.264440 0.000000 -0.964402
vn -0.264440 0.000000 -0.964402
vn 0.755453 0.000000 -0.655203
vn 0.755453 0.000000 -0.655203
vn 0.755453 0.000000 -0.655203
vn 0.755453 0.000000 -0.655203
vn -0.301934 0.000000 -0.953329
vn -0.301934 0.000000 -0.953329
vn -0.301934 0.000000 -0.953329
vn -0.301934 0.000000 -0.953329
vn 0.650760 0.000000 -0.759284
vn 0.650760 0.000000 -0.759284
vn 0.650760 0.000000 -0.759284
vn 0.650760 0.000000 -0.759284
vn -1.000000 0.000001 0.000000
vn -1.000000 0.000001 0.000000
vn -1.000000 0.000001 0.000000
vn -1.000000 0.000001 0.000000
vn -1.000000 -0.000002 0.000000
vn -1.000000 -0.000003 0.000000
vn 1.000000 0.000000 0.000000
vn 1.000000 0.000000 0.000000
vn 1.000000 0.000000 0.000000
vn 1.000000 0.000000 0.000000
vn -0.060893 0.000000 0.998144
vn 0.015476 -0.969424 -0.244905
vn -0.008192 -0.999750 0.020821
vn -0.010052 -0.982512 -0.185929
vn -0.019023 -0.999819 0.000000
vn -0.011786 -0.999924 0.003596
vn -0.005521 -0.999964 0.006462
vn -0.000021 -0.999958 0.009177
vn -0.035323 -0.999247 0.016065
vn 0.000527 -0.999804 0.019816
vn 0.007532 -0.999603 0.027160
vn -0.041980 -0.998655 0.030427
vn 0.008433 -0.999610 0.026634
vn 0.000000 -0.999760 0.021893
vn -0.006672 -0.999769 0.020440
vn -0.000145 -0.999762 0.021802
vn 0.000265 -0.999760 0.021925
vn 0.002323 -0.999739 0.022726
vn -0.012407 -0.999672 0.022408
vn 0.015078 -0.884102 -0.467052
vn 0.000060 -0.999562 0.029591
vn -0.027810 -0.810282 -0.585380
vn -0.000652 -0.999615 0.027743
vn 0.004149 -0.981070 -0.193612
vn -0.005014 -0.999340 0.035994
vn 0.007297 -0.999406 0.033681
vn 0.008435 -0.999610 0.026631
vn 0.002394 -0.999445 0.033213
vn -0.004022 -0.999426 0.033652
vn -0.002011 -0.999374 0.035334
vn 0.000369 -0.999400 0.034626
vn 0.009993 -0.999320 0.035481
vn 0.000919 -0.999411 0.034306
vn 0.117991 -0.906569 -0.405229
vn 0.025291 -0.999552 0.015973
vn -0.004894 -0.979196 -0.202856
vn 0.066287 -0.867526 -0.492955
vn 0.011565 -0.915345 -0.402504
vn -0.017526 -0.998570 0.050509
vn 0.059197 -0.894069 -0.444001
vn -0.001000 -0.999371 0.035440
vn -0.001862 -0.999359 0.035757
vn -0.001916 -0.999413 0.034210
vn -0.012571 -0.999315 0.034798
vn 0.000000 -1.000000 0.000002
vn -0.038597 -0.998619 0.035652
vn -0.110770 -0.992552 0.050710
vn 0.101773 -0.994515 0.024121
vn -0.014194 -0.999356 0.032948
vn -0.016209 -0.985050 -0.171503
vn 0.006133 -0.994575 -0.103838
vn 0.008153 -0.994131 -0.107876
s 1
g polySurface12
usemtl initialShadingGroup
f 160/1/1 162/2/2 163/3/3 159/4/4
s 2
f 177/5/5 180/6/6 151/7/7 152/8/8 4/9/9 2/10/10 183/11/11 191/12/12
s 3
f 98/13/13 7/14/14 99/15/15 100/16/16
s 4
f 97/17/17 6/18/18 123/19/19
s 5
f 158/20/20 165/21/21 179/22/22 157/23/23
s 6
f 117/24/24 96/25/25 129/26/26 130/27/27
s 7
f 94/28/28 121/29/29 122/30/30
f 94/28/28 124/31/31 121/29/29
s 8
f 144/32/32 143/33/33 90/34/34
s 9
f 112/35/35 89/36/36 143/33/37 144/32/38
s 4
f 87/37/39 89/36/40 112/35/41 115/38/42 116/39/43
f 89/36/40 87/37/39 88/40/44
s 11
f 12/41/45 9/42/46 10/43/47 13/44/48
f 14/45/49 13/44/48 10/43/47 11/46/50
f 15/47/51 12/41/45 13/44/48 16/48/52
s 12
f 32/49/53 16/48/54 13/44/55
f 32/49/53 13/44/55 31/50/56
f 13/44/55 27/51/57 31/50/56
s 2
f 108/52/58 140/53/59 18/54/60 17/55/61 25/56/62 30/57/63 28/58/64 29/59/65 26/60/66 125/61/67
s 14
f 21/62/68 20/63/69 32/49/70 17/55/71
s 2
f 22/64/72 21/62/73 17/55/61 18/54/60
s 11
f 15/47/51 16/48/52 24/65/74 23/66/75
s 12
f 16/48/54 20/63/76 24/65/77
s 15
f 24/65/78 153/67/79 19/68/80 23/66/81
s 16
f 25/56/82 27/51/83 30/57/84
f 27/51/83 13/44/85 30/57/84
f 30/57/84 13/44/85 28/58/86
s off
f 13/44/87 29/59/88 28/58/89
s 17
f 13/44/90 14/45/91 26/60/92
s 14
f 17/55/71 31/50/93 25/56/94
f 27/51/95 25/56/94 31/50/93
s 17
f 26/60/92 29/59/96 13/44/90
s 14
f 17/55/71 32/49/70 31/50/93
s 12
f 32/49/53 20/63/76 16/48/54
s 9
f 80/69/97 70/70/98 79/71/99
f 83/72/100 79/71/99 82/73/101
f 79/71/99 70/70/98 82/73/101
s 4
f 36/74/102 35/75/103 42/76/104
f 35/75/103 38/77/105 42/76/104
f 42/76/104 38/77/105 41/78/106
f 41/78/106 38/77/105 72/79/107
s 20
f 39/80/108 47/81/109 48/82/110 73/83/111 74/84/112
s 4
f 60/85/113 137/86/114 46/87/115 42/76/104 92/88/116
f 41/89/106 136/90/117 42/76/104
f 136/90/117 92/88/116 42/76/104
s 22
f 44/91/118 43/92/119 3/93/120 45/94/121
s 4
f 5/95/122 46/87/115 137/86/114 3/93/123
s 20
f 72/79/124 73/83/111 48/82/110 49/96/125 40/97/126 41/78/127
s 23
f 65/98/128 53/99/129 51/100/130 67/101/131
s 24
f 64/102/132 40/103/133 49/104/134
s 23
f 63/105/135 64/106/136 49/107/137 48/108/138
f 54/109/139 53/110/129 65/111/128 66/112/140
s 24
f 54/113/141 56/114/142 53/99/143
f 53/99/143 56/114/142 85/115/144 51/100/145
s 26
f 47/116/146 63/117/147 48/118/148
s 22
f 62/119/149 59/120/150 139/121/151 52/122/152
f 39/123/153 57/124/154 86/125/155
f 44/126/118 139/127/151 59/128/150 43/129/119
s 28
f 54/130/156 66/131/157 55/132/158 61/133/159 60/85/160 58/134/161 56/135/162
f 58/136/161 84/137/163 85/138/164 56/139/162
s 22
f 86/140/155 62/119/149 52/122/152 50/141/165
s 26
f 50/142/166 63/117/147 47/116/146
s 23
f 51/143/130 64/106/136 63/105/135 67/144/131
s 24
f 51/100/145 40/103/133 64/102/132
s 23
f 66/112/140 65/111/128 52/145/167 55/146/168
f 67/144/131 63/105/135 50/147/169
f 52/148/167 65/98/128 67/101/131 50/149/169
s 22
f 50/150/165 47/151/170 39/123/153 86/125/155
s 9
f 71/152/171 77/153/172 70/154/98
s 4
f 38/155/105 35/156/103 69/157/173 71/152/174
s 9
f 69/158/175 35/159/176 34/160/177 68/161/178
f 38/162/179 71/163/171 70/164/98 37/165/180
s 20
f 37/166/181 73/83/111 72/79/124 38/77/182
s 9
f 75/167/183 34/168/177 33/169/184 76/170/185
s 32
f 37/166/186 70/70/187 80/69/188
s 33
f 75/167/189 76/170/190 78/171/191 77/172/192
s 34
f 74/84/193 73/83/194 80/69/195 79/71/196
s 32
f 73/83/197 37/166/186 80/69/188
s 9
f 69/157/175 68/173/178 77/153/172 71/152/171
f 81/174/198 82/175/101 78/176/199
f 82/175/101 70/70/98 78/176/199
f 70/70/98 77/172/172 78/176/199
s 33
f 78/177/191 76/178/190 81/179/200
s 34
f 74/180/193 79/181/196 83/182/201
s 20
f 40/183/126 93/184/202 41/185/127
s 24
f 51/100/145 85/115/144 40/103/133
s 22
f 57/186/154 62/119/149 86/140/155
s 20
f 41/89/127 93/187/202 135/188/203 136/90/204
s 28
f 85/138/164 84/137/163 93/184/205 40/183/206
s 4
f 58/134/207 135/188/208 93/187/209 84/189/210
s 7
f 94/28/28 122/30/30 6/18/211
s 35
f 95/190/212 109/191/213 110/192/214 99/15/215 7/14/216
s 4
f 118/193/217 97/17/17 123/19/19
f 118/193/217 119/194/218 104/195/219 103/196/220 97/17/17
s 3
f 105/197/221 106/198/222 104/195/223
f 104/195/223 106/198/222 103/196/224
f 100/16/16 99/15/15 101/199/225
f 101/199/225 99/15/15 102/200/226
f 102/200/226 99/15/15 110/192/227 106/198/222 105/197/221
f 103/196/224 106/198/222 6/18/228 97/17/229
s 35
f 109/191/213 108/52/230 110/192/214
f 110/192/214 108/52/230 107/201/231
f 6/18/232 106/198/233 94/28/234
f 94/28/234 106/198/233 107/201/231
f 110/192/214 107/201/231 106/198/233
s 9
f 115/38/235 112/35/35 114/202/236
f 114/202/236 112/35/35 111/203/237 113/204/238
f 111/203/237 112/35/35 144/32/38 145/205/239
f 147/206/240 114/202/236 113/204/238 146/207/241
f 148/208/242 115/38/235 114/202/236 147/206/240
s 4
f 149/209/243 116/39/43 115/38/42 148/208/244
f 101/199/245 142/210/246 98/13/247 100/16/248
s off
f 119/211/249 118/212/250 117/213/251
s 9
f 89/214/36 119/215/252 117/216/253 143/217/37
f 120/218/254 91/219/255 90/220/256 130/27/257
s 40
f 129/26/258 96/25/259 6/18/260
f 96/25/259 123/19/261 6/18/260
f 122/30/262 129/26/258 6/18/260
f 118/193/263 123/19/261 96/25/259 117/24/264
s 2
f 124/31/265 94/28/266 107/201/267 108/52/58
f 125/61/67 131/221/268 132/222/269 124/31/265 108/52/58
s 11
f 127/223/270 126/224/271 11/46/50 10/43/47
s 40
f 122/30/262 121/29/272 128/225/273 129/26/258
s 6
f 128/225/274 130/27/27 129/26/26
s 11
f 131/221/275 134/226/276 128/225/277 121/29/278 132/222/279
f 131/221/275 125/61/280 134/226/276
s 42
f 134/226/281 125/61/282 126/224/283
f 126/224/283 127/223/284 134/226/281
s 11
f 132/222/279 121/29/278 124/31/285
s 42
f 127/223/284 10/43/286 134/226/281
s 11
f 134/226/276 10/43/47 9/42/46 133/227/287
f 128/225/277 134/226/276 133/227/287 120/228/288 130/27/289
s 2
f 11/46/290 126/224/291 125/61/67 26/60/66 14/45/292
s 4
f 58/134/207 60/85/113 92/88/116 135/188/208
s off
f 136/90/293 135/188/294 92/88/295
s 28
f 137/86/296 60/229/160 138/230/297
f 138/230/297 60/229/160 61/231/159
s 4
f 3/93/123 137/86/114 45/94/298
s 22
f 138/232/299 61/231/300 44/126/118 45/233/121
s 4
f 45/94/298 137/86/114 138/230/301
s 43
f 61/231/302 139/127/303 44/126/304
f 52/122/305 139/121/303 61/133/302 55/132/306
s 4
f 88/40/44 101/199/245 102/200/307 105/197/308 104/195/219 119/194/218 89/36/40
s 2
f 108/52/58 141/234/309 140/53/59
f 95/190/310 141/234/309 108/52/58 109/191/311
s 4
f 88/40/44 142/210/246 101/199/245
s 8
f 143/217/33 117/216/312 90/235/34
s 9
f 90/34/256 91/236/255 145/205/239 144/32/38
s 8
f 90/220/34 117/24/312 130/27/313
s 9
f 34/168/177 147/206/240 146/207/241 33/169/184
f 35/75/176 148/208/242 147/206/240 34/168/177
s 4
f 36/74/102 149/209/243 148/208/244 35/75/103
s 15
f 164/237/314 161/238/315 19/68/80 153/67/79
s 14
f 151/7/316 150/239/317 154/240/318 155/241/319
s 2
f 152/8/8 151/7/7 155/241/320 21/62/73 22/64/72
s 45
f 20/63/321 153/67/322 24/65/323
s 14
f 155/241/319 154/240/318 20/63/69 21/62/68
s 46
f 165/21/324 159/4/325 163/3/326
s 5
f 170/242/327 178/243/328 167/244/329
s 48
f 167/244/330 184/245/331 185/246/332 173/247/333
s off
f 174/248/334 166/249/335 167/244/336 173/247/337
s 45
f 164/237/338 153/67/322 20/63/321 154/240/339
s 15
f 162/2/340 161/238/315 164/237/314 163/3/341
s 45
f 163/3/342 164/237/338 150/239/343
f 150/239/343 164/237/338 154/240/339
s 46
f 158/20/344 159/4/325 165/21/324
s 45
f 165/21/345 163/3/342 150/239/343
s 14
f 151/7/316 165/21/346 150/239/317
s 1
f 175/250/347 176/251/348 160/1/1 159/4/4
s 46
f 170/242/349 175/250/350 159/4/325 158/20/344
s 5
f 169/252/351 170/242/327 158/20/20 157/23/23
s 46
f 167/244/352 171/253/353 170/242/349
s off
f 166/249/354 172/254/355 171/253/356 167/244/357
s 49
f 185/246/358 186/255/359 174/248/360 173/247/361
s 46
f 170/242/349 171/253/353 175/250/350
s 1
f 172/254/362 176/251/348 175/250/347 171/253/363
s 2
f 157/23/364 179/22/365 180/6/6
s 5
f 168/256/366 178/243/328 170/242/327 169/252/351
s 14
f 179/22/367 165/21/346 151/7/316
f 180/6/368 179/22/367 151/7/316
s 2
f 157/23/364 180/6/6 177/5/5 168/256/369 169/252/370
s 50
f 168/256/371 177/5/372 191/12/373 181/257/374
f 181/257/374 178/243/375 168/256/371
f 167/244/376 178/243/375 181/257/374 182/258/377
s 51
f 184/245/378 192/259/379 8/260/380
f 8/260/380 192/259/379 2/10/381
f 192/259/379 183/11/382 2/10/381
s 48
f 185/246/332 184/245/331 8/260/383 156/261/384
s 49
f 1/262/385 186/255/359 185/246/358 156/261/386
s 2
f 181/257/387 191/12/12 183/11/11 188/263/388 187/264/389
s 52
f 184/245/390 190/265/391 192/259/392
s off
f 190/265/393 184/245/394 167/244/395 189/266/396
s 53
f 182/258/397 189/266/398 167/244/399
f 187/264/400 189/266/398 182/258/397 181/257/401
s off
f 187/264/402 188/263/403 190/265/404 189/266/405
s 52
f 183/11/406 192/259/392 190/265/391 188/263/407
s off
f 4/267/408 152/268/409 194/269/410 193/270/411
f 7/271/412 98/272/413 196/273/414 195/274/415
f 18/275/416 140/276/417 198/277/418 197/278/419
f 22/279/420 18/280/421 197/281/422 199/282/423
f 36/283/424 42/284/425 201/285/426 200/286/427
f 42/287/428 46/288/429 202/289/430 201/290/431
f 46/291/432 5/292/433 203/293/434 202/294/435
f 87/295/436 116/296/437 205/297/438 204/298/439
f 88/299/440 87/300/441 204/301/442 206/302/443
f 95/303/444 7/304/445 195/305/446 207/306/447
f 98/307/448 142/308/449 208/309/450 196/310/451
f 116/311/452 149/312/453 209/313/454 205/314/455
f 140/315/456 141/316/457 210/317/458 198/318/459
f 141/319/460 95/320/461 207/321/462 210/322/463
f 142/323/464 88/324/465 206/325/466 208/326/467
f 149/327/468 36/328/469 200/329/470 209/330/471
f 152/331/472 22/332/473 199/333/474 194/334/475
s 54
f 2/335/476 4/336/477 193/337/478 8/338/479
f 8/339/479 193/340/478 156/341/480
f 156/342/480 193/343/478 1/344/481
s off
f 5/345/482 3/346/483 211/399/484 203/347/485
s 22
f 43/362/119 211/400/486 3/349/120
s 55
f 172/375/487 166/377/488 176/376/489
f 211/400/490 43/362/491 203/398/492
f 203/398/492 43/362/491 202/386/493
f 43/362/491 59/356/494 202/386/493
f 202/386/493 59/356/494 201/385/495
f 200/384/496 201/385/495 39/357/497
f 39/357/497 209/395/498 200/384/496
f 193/380/499 194/396/500 1/397/501
f 1/397/501 194/396/500 186/348/502
f 186/348/502 194/396/500 174/379/503
f 174/379/503 194/396/500 166/377/488
f 194/396/500 199/383/504 166/377/488
f 176/376/489 166/377/488 160/378/505
f 162/372/506 160/378/505 166/377/488
f 162/372/506 166/377/488 199/383/504
f 161/374/507 162/372/506 23/352/508
f 19/373/509 161/374/507 23/352/508
f 199/383/504 23/352/508 162/372/506
f 199/383/504 197/382/510 23/352/508
f 197/382/510 198/392/511 23/352/508
f 39/357/497 205/391/512 209/395/498
f 39/357/497 204/387/513 205/391/512
f 59/356/494 39/357/497 201/385/495
f 23/352/508 198/392/511 15/353/514
f 15/353/514 198/392/511 12/351/515
f 12/351/515 198/392/511 9/350/516
f 9/350/516 198/392/511 133/368/517
f 133/368/517 198/392/511 120/369/518
f 81/358/519 76/354/520 82/359/521
f 57/355/522 39/357/497 62/363/523
f 59/356/494 62/363/523 39/357/497
f 39/357/497 74/360/524 204/387/513
f 204/387/513 74/360/524 76/354/520
f 76/354/520 74/360/524 83/361/525
f 83/361/525 82/359/521 76/354/520
f 76/354/520 33/371/526 204/387/513
f 33/371/526 146/366/527 204/387/513
f 146/366/527 113/365/528 204/387/513
f 204/387/513 113/365/528 206/388/529
f 210/393/530 207/389/531 198/392/511
f 198/392/511 207/389/531 120/369/518
f 207/389/531 195/381/532 120/369/518
f 195/381/532 196/390/533 120/369/518
f 196/390/533 208/394/534 120/369/518
f 208/394/534 206/388/529 120/369/518
f 111/370/535 145/364/536 113/365/528
f 206/388/529 113/365/528 120/369/518
f 91/367/537 120/369/518 145/364/536
f 120/369/518 113/365/528 145/364/536
